<svg width="23" height="23" viewBox="0 0 23 23" fill="none" xmlns="http://www.w3.org/2000/svg">
<path d="M11.5 0C5.14933 0 0 5.28281 0 11.7926C0 17.0036 3.29598 21.4187 7.86518 22.9795C7.92927 22.9934 7.99468 23.0003 8.06027 23C8.48638 23 8.65067 22.6868 8.65067 22.4147C8.65067 22.1324 8.6404 21.3931 8.63527 20.4074C8.25486 20.4965 7.86571 20.543 7.475 20.546C5.26228 20.546 4.75915 18.8261 4.75915 18.8261C4.23549 17.4656 3.4808 17.1011 3.4808 17.1011C2.47969 16.3978 3.47567 16.3772 3.55268 16.3772H3.55781C4.71295 16.4799 5.31875 17.5991 5.31875 17.5991C5.89375 18.6053 6.66384 18.8877 7.35179 18.8877C7.80667 18.8786 8.25452 18.7737 8.66607 18.5797C8.76875 17.8199 9.06652 17.3013 9.39509 17.0036C6.84353 16.7058 4.15848 15.6944 4.15848 11.1766C4.15848 9.88794 4.60513 8.83549 5.33929 8.01406C5.22121 7.71629 4.82589 6.51495 5.45223 4.89263C5.53625 4.87253 5.6226 4.86389 5.70893 4.86696C6.12478 4.86696 7.06429 5.02611 8.61473 6.10424C10.4986 5.57714 12.4911 5.57714 14.375 6.10424C15.9254 5.02611 16.865 4.86696 17.2808 4.86696C17.3671 4.86389 17.4535 4.87253 17.5375 4.89263C18.1638 6.51495 17.7685 7.71629 17.6504 8.01406C18.3846 8.84062 18.8312 9.89308 18.8312 11.1766C18.8312 15.7047 16.1411 16.7007 13.5792 16.9933C13.99 17.3578 14.3596 18.0766 14.3596 19.1752C14.3596 20.7513 14.3442 22.0245 14.3442 22.4096C14.3442 22.6868 14.5033 23 14.9295 23C14.9984 23.0003 15.0673 22.9934 15.1348 22.9795C19.7092 21.4187 23 16.9984 23 11.7926C23 5.28281 17.8507 0 11.5 0Z" fill="black"/>
</svg>
