<svg width="23" height="23" viewBox="0 0 23 23" fill="none" xmlns="http://www.w3.org/2000/svg">
<path d="M5.24466 5.24466L3.36817 3.36817M11.5 0V2.65385V0ZM11.5 20.3462V23V20.3462ZM19.6318 3.36817L17.7553 5.24466L19.6318 3.36817ZM5.24466 17.7553L3.36817 19.6318L5.24466 17.7553ZM23 11.5H20.3462H23ZM2.65385 11.5H0H2.65385ZM19.6318 19.6318L17.7553 17.7553L19.6318 19.6318Z" stroke="black" stroke-width="2" stroke-miterlimit="10" stroke-linecap="round"/>
<path d="M11.5 15.9243C13.9428 15.9243 15.9231 13.944 15.9231 11.5012C15.9231 9.0584 13.9428 7.07812 11.5 7.07812C9.05718 7.07812 7.0769 9.0584 7.0769 11.5012C7.0769 13.944 9.05718 15.9243 11.5 15.9243Z" stroke="black" stroke-width="2" stroke-miterlimit="10" stroke-linecap="round"/>
</svg>
